<svg width="16" height="16" viewBox="0 0 16 16" fill="none" xmlns="http://www.w3.org/2000/svg">
<g id="Password">
<path id="Vector" d="M13.5356 2.464C12.7414 1.6687 11.7024 1.16417 10.5863 1.03185C9.47016 0.899526 8.34199 1.14712 7.38384 1.73468C6.42569 2.32223 5.69346 3.21548 5.30529 4.27028C4.91712 5.32507 4.89566 6.47989 5.24438 7.54838L1.79313 10.9996C1.69987 11.0922 1.62593 11.2023 1.5756 11.3236C1.52528 11.445 1.49959 11.5751 1.50001 11.7065V13.4996C1.50001 13.7648 1.60536 14.0192 1.7929 14.2067C1.98043 14.3943 2.23479 14.4996 2.50001 14.4996H4.50001C4.63261 14.4996 4.75979 14.4469 4.85356 14.3532C4.94733 14.2594 5.00001 14.1322 5.00001 13.9996V12.9996H6.00001C6.13261 12.9996 6.25979 12.9469 6.35356 12.8532C6.44733 12.7594 6.50001 12.6322 6.50001 12.4996V11.4996H7.50001C7.56569 11.4997 7.63073 11.4868 7.69143 11.4617C7.75213 11.4366 7.80729 11.3998 7.85376 11.3534L8.45126 10.7553C8.95137 10.918 9.47409 11.0004 10 10.9996H10.0063C10.9947 10.9984 11.9605 10.7043 12.7818 10.1544C13.6032 9.60455 14.2431 8.82358 14.6208 7.91019C14.9985 6.99679 15.0969 5.99194 14.9038 5.02259C14.7107 4.05325 14.2346 3.16289 13.5356 2.464ZM11.25 5.74963C11.0522 5.74963 10.8589 5.69098 10.6944 5.5811C10.53 5.47122 10.4018 5.31504 10.3261 5.13231C10.2504 4.94959 10.2306 4.74852 10.2692 4.55454C10.3078 4.36056 10.403 4.18237 10.5429 4.04252C10.6828 3.90267 10.8609 3.80743 11.0549 3.76884C11.2489 3.73026 11.45 3.75006 11.6327 3.82575C11.8154 3.90144 11.9716 4.02961 12.0815 4.19406C12.1914 4.35851 12.25 4.55185 12.25 4.74963C12.25 5.01484 12.1446 5.2692 11.9571 5.45673C11.7696 5.64427 11.5152 5.74963 11.25 5.74963Z" fill="#888888"/>
</g>
</svg>
